# xmcd
#
# Track frame offsets: 
#        300
#        16165
#        32030
#        47895
#        63760
#        79625
#        95490
#        111355
#        127220
#        143085
#        158950
#        174815
#        190680
#        206545
#
# Disc length: 2963 seconds
#
# Revision: 0
# Processed by: cddbd v1.5.2PL0 Copyright (c) Steve Scherf et al.
# Submitted via: ExactAudioCopy v1.0b1
#
DISCID=b70b8f0e
DTITLE=Candye Kane - Diva La Grande
DYEAR=1997
DGENRE=Blues
TTITLE0=You Need a Great Big Women
TTITLE1=Love 'Em and Forgive 'Em
TTITLE2=Freak Lover
TTITLE3=I Got a Feelin'
TTITLE4=I Left My Heart in Texas
TTITLE5=The Lord Was a Woman
TTITLE6=It Should Be Rainin'
TTITLE7=These Boots Are Made For Walkin'
TTITLE8=Gifted in the Ways of Love
TTITLE9=I'm in Love with a Girl
TTITLE10=Homewrecker
TTITLE11=Beehive
TTITLE12=All You Can Eat (And You Can Eat It All Night Long)
TTITLE13=That Ain't It
EXTD=
EXTT0=
EXTT1=
EXTT2=
EXTT3=
EXTT4=
EXTT5=
EXTT6=
EXTT7=
EXTT8=
EXTT9=
EXTT10=
EXTT11=
EXTT12=
EXTT13=
PLAYORDER=
